<?xml version="1.0" encoding="UTF-8" standalone="no"?>
<svg width="238px" height="20px" viewBox="0 0 238 20" version="1.1" xmlns="http://www.w3.org/2000/svg" xmlns:xlink="http://www.w3.org/1999/xlink" xmlns:sketch="http://www.bohemiancoding.com/sketch/ns">
    <!-- Generator: Sketch 3.2.2 (9983) - http://www.bohemiancoding.com/sketch -->
    <title>Imported Layers + Imported Layers 3</title>
    <desc>Created with Sketch.</desc>
    <defs></defs>
    <g id="Landing" stroke="none" stroke-width="1" fill="none" fill-rule="evenodd" sketch:type="MSPage">
        <g sketch:type="MSArtboardGroup" transform="translate(-50.000000, -70.000000)" id="Imported-Layers-+-Imported-Layers-3" fill="#FFFFFF">
            <g sketch:type="MSLayerGroup" transform="translate(50.000000, 70.000000)">
                <g sketch:type="MSShapeGroup">
                    <g id="Imported-Layers" transform="translate(37.000000, 0.000000)">
                        <path d="M11.3378865,5.91740741 C11.3378865,6.67037037 11.2016667,7.33888889 10.9292269,7.93 C10.6567872,8.52345679 10.2904027,9.03950617 9.82772487,9.47814815 C9.36974427,9.92148148 8.82956202,10.2967901 8.20952675,10.6064198 C7.58949148,10.9137037 6.94127278,11.152963 6.26487066,11.3218519 L13.0007084,19.512963 L10.6614844,19.512963 L4.29203116,11.6314815 C4.14171958,11.6525926 3.96792181,11.6666667 3.77063786,11.6760494 C3.57100529,11.6854321 3.39016167,11.6901235 3.22106114,11.6901235 L1.86825691,11.6901235 L1.86825691,19.512963 L-0.0505643739,19.512963 L-0.0505643739,0.766296296 L4.46113169,0.766296296 C5.38179012,0.766296296 6.26017343,0.869506173 7.09393298,1.07592593 C7.93238977,1.28469136 8.66281011,1.6037037 9.29458848,2.03296296 C9.92166961,2.46691358 10.4195767,3.00407407 10.7883098,3.65382716 C11.1546943,4.29888889 11.3378865,5.05419753 11.3378865,5.91740741 L11.3378865,5.91740741 Z M9.42141387,5.9737037 C9.42141387,5.31925926 9.28049677,4.75864198 8.99866255,4.29888889 C8.71682834,3.84148148 8.34104938,3.46617284 7.87132569,3.17530864 C7.401602,2.88444444 6.86611699,2.67333333 6.26487066,2.53962963 C5.66362434,2.4082716 5.04124045,2.34259259 4.40476484,2.34259259 L1.86825691,2.34259259 L1.86825691,10.1138272 L3.39016167,10.1138272 C4.19808642,10.1138272 4.96843327,10.0293827 5.70120223,9.85814815 C6.43397119,9.68925926 7.07749265,9.43592593 7.63176661,9.09814815 C8.18369195,8.76037037 8.6228836,8.33580247 8.94229571,7.81740741 C9.26170782,7.30135802 9.42141387,6.6891358 9.42141387,5.9737037 L9.42141387,5.9737037 Z" id="Fill-1"></path>
                        <path d="M15.6781335,0.766296296 L25.7114315,0.766296296 L25.7114315,2.34259259 L17.5946061,2.34259259 L17.5946061,9.12864198 L25.3755791,9.12864198 L25.3755791,10.7025926 L17.5946061,10.7025926 L17.5946061,17.9366667 L25.7959818,17.9366667 L25.7959818,19.512963 L15.6781335,19.512963 L15.6781335,0.766296296" id="Fill-2"></path>
                        <path d="M38.5630717,0.430864198 C39.5800235,0.430864198 40.5570488,0.510617284 41.4941476,0.667777778 C42.4335949,0.82962963 43.2978865,1.09703704 44.0870223,1.47 L43.7488213,3.01814815 C42.9784744,2.6991358 42.1517607,2.45283951 41.2686802,2.2745679 C40.3855996,2.0962963 39.4931246,2.00716049 38.5936038,2.00716049 C37.3699735,2.00716049 36.2661229,2.19012346 35.2797031,2.55604938 C34.295632,2.92197531 33.4477807,3.46382716 32.7431952,4.17691358 C32.0409583,4.89234568 31.4937302,5.76493827 31.1085567,6.79703704 C30.7233833,7.83382716 30.5307966,9.01839506 30.5307966,10.3507407 C30.5307966,12.87 31.2212904,14.8309877 32.6022781,16.231358 C33.9856143,17.6317284 35.9889859,18.3330864 38.6194386,18.3330864 C39.2206849,18.3330864 39.8923898,18.2861728 40.6369018,18.19 C41.3767166,18.0985185 41.9920547,17.9741975 42.4805673,17.8264198 L42.4805673,11.4649383 L44.2584715,11.4649383 L44.2584715,18.9124691 C43.504565,19.2080247 42.5956496,19.4379012 41.5246796,19.6044444 C40.4537096,19.768642 39.4085744,19.8507407 38.3963198,19.8507407 C36.8720664,19.8507407 35.5098677,19.6208642 34.3073751,19.1611111 C33.1048824,18.7037037 32.0808848,18.0539506 31.2353821,17.2212346 C30.3898795,16.3838272 29.7416608,15.3822222 29.2930747,14.2093827 C28.8397913,13.0365432 28.6166725,11.7464198 28.6166725,10.3366667 C28.6166725,8.83777778 28.8444885,7.47728395 29.3071664,6.25518519 C29.765147,5.03777778 30.4274574,3.99395062 31.291749,3.13074074 C32.1560406,2.26987654 33.205873,1.6037037 34.4342005,1.1345679 C35.6648765,0.66308642 37.041167,0.430864198 38.5630717,0.430864198" id="Fill-3"></path>
                        <path d="M63.9563345,19.512963 L61.9553116,19.512963 L60.1233892,14.7277778 L51.0483275,14.7277778 L49.2164051,19.512963 L47.2153821,19.512963 L54.6558054,0.766296296 L56.5159112,0.766296296 L63.9563345,19.512963 L63.9563345,19.512963 Z M55.5858583,2.73666667 L51.6401793,13.1538272 L59.5315373,13.1538272 L55.5858583,2.73666667 L55.5858583,2.73666667 Z" id="Fill-4"></path>
                        <path d="M69.1139006,0.766296296 L69.1139006,17.9366667 L77.0334421,17.9366667 L77.0334421,19.512963 L67.1950794,19.512963 L67.1950794,0.766296296 L69.1139006,0.766296296" id="Fill-5"></path>
                        <path d="M87.430776,19.8507407 C86.002816,19.8507407 84.7298648,19.5903704 83.614271,19.0625926 C82.4963286,18.5371605 81.5545326,17.8311111 80.7935802,16.9397531 C80.0349765,16.0483951 79.4525191,15.0139506 79.0462081,13.8411111 C78.6422457,12.6682716 78.4402646,11.4344444 78.4402646,10.1396296 C78.4402646,8.84716049 78.6422457,7.61098765 79.0462081,6.43814815 C79.4525191,5.26530864 80.0349765,4.23555556 80.7935802,3.34419753 C81.5545326,2.45283951 82.4963286,1.74209877 83.614271,1.21901235 C84.7298648,0.693580247 86.002816,0.430864198 87.430776,0.430864198 C88.8610847,0.430864198 90.1340359,0.693580247 91.2519782,1.21901235 C92.367572,1.74209877 93.3070194,2.45283951 94.0703204,3.34419753 C94.8312728,4.23555556 95.4137302,5.26530864 95.8176925,6.43814815 C96.2216549,7.61098765 96.4236361,8.84716049 96.4236361,10.1396296 C96.4236361,11.4344444 96.2216549,12.6682716 95.8176925,13.8411111 C95.4137302,15.0139506 94.8312728,16.0483951 94.0703204,16.9397531 C93.3070194,17.8311111 92.367572,18.5371605 91.2519782,19.0625926 C90.1340359,19.5903704 88.8610847,19.8507407 87.430776,19.8507407 L87.430776,19.8507407 Z M87.430776,18.2744444 C88.5604615,18.2744444 89.560973,18.058642 90.434659,17.6293827 C91.3083451,17.1954321 92.0481599,16.6137037 92.6611493,15.8841975 C93.2717901,15.15 93.7297707,14.2938272 94.042137,13.3062963 C94.3521546,12.3211111 94.5048148,11.2679012 94.5048148,10.1396296 C94.5048148,9.03481481 94.3521546,7.9862963 94.042137,7.00111111 C93.7297707,6.0182716 93.2717901,5.15271605 92.6611493,4.41148148 C92.0481599,3.67259259 91.3083451,3.08617284 90.434659,2.65222222 C89.560973,2.22061728 88.5604615,2.00716049 87.430776,2.00716049 C86.3057878,2.00716049 85.3029277,2.22061728 84.4292416,2.65222222 C83.5579042,3.08617284 82.820438,3.67259259 82.2191917,4.41148148 C81.6179453,5.15271605 81.1576161,6.0182716 80.838204,7.00111111 C80.5164433,7.9862963 80.3590858,9.03481481 80.3590858,10.1396296 C80.3590858,11.2679012 80.5164433,12.3211111 80.838204,13.3062963 C81.1576161,14.2938272 81.6179453,15.15 82.2191917,15.8841975 C82.820438,16.6137037 83.5579042,17.1954321 84.4292416,17.6293827 C85.3029277,18.058642 86.3057878,18.2744444 87.430776,18.2744444 L87.430776,18.2744444 Z" id="Fill-6"></path>
                        <path d="M100.113316,0.766296296 L104.76358,0.766296296 C106.341852,0.766296296 107.788601,0.998518519 109.103827,1.45592593 C110.421402,1.91802469 111.54639,2.56074074 112.488186,3.38407407 C113.425285,4.21209877 114.153357,5.20197531 114.670053,6.3537037 C115.186749,7.50777778 115.445097,8.76975309 115.445097,10.1396296 C115.445097,11.5282716 115.186749,12.7949383 114.670053,13.9396296 C114.153357,15.0866667 113.425285,16.0718519 112.488186,16.8951852 C111.54639,17.7232099 110.421402,18.3635802 109.103827,18.825679 C107.788601,19.2854321 106.341852,19.512963 104.76358,19.512963 L100.113316,19.512963 L100.113316,0.766296296 L100.113316,0.766296296 Z M104.791764,17.9366667 C105.994256,17.9366667 107.12629,17.7677778 108.187866,17.4323457 C109.25179,17.0922222 110.174797,16.5902469 110.963933,15.9240741 C111.753069,15.2602469 112.38015,14.4416049 112.840479,13.4751852 C113.29846,12.5087654 113.530973,11.3969136 113.530973,10.1396296 C113.530973,8.88234568 113.29846,7.77283951 112.840479,6.80407407 C112.38015,5.83765432 111.753069,5.02839506 110.963933,4.36925926 C110.174797,3.71246914 109.25179,3.21049383 108.187866,2.86567901 C107.12629,2.51617284 105.994256,2.34259259 104.791764,2.34259259 L102.029788,2.34259259 L102.029788,17.9366667 L104.791764,17.9366667 L104.791764,17.9366667 Z" id="Fill-7"></path>
                        <path d="M119.024392,0.766296296 L129.05769,0.766296296 L129.05769,2.34259259 L120.940864,2.34259259 L120.940864,9.12864198 L128.721837,9.12864198 L128.721837,10.7025926 L120.940864,10.7025926 L120.940864,17.9366667 L129.14224,17.9366667 L129.14224,19.512963 L119.024392,19.512963 L119.024392,0.766296296" id="Fill-8"></path>
                        <path d="M135.539877,3.94938272 L134.525273,19.512963 L132.665168,19.512963 L134.017972,0.766296296 L135.793527,0.766296296 L142.529365,14.2774074 L149.267551,0.766296296 L151.040758,0.766296296 L152.393563,19.512963 L150.533457,19.512963 L149.518854,3.94938272 L143.572152,15.9944444 L141.486578,15.9944444 L135.539877,3.94938272" id="Fill-9"></path>
                        <path d="M156.877075,0.766296296 L158.795897,0.766296296 L158.795897,19.512963 L156.877075,19.512963 L156.877075,0.766296296 Z" id="Fill-10"></path>
                        <path d="M163.723298,0.766296296 L173.756596,0.766296296 L173.756596,2.34259259 L165.639771,2.34259259 L165.639771,9.12864198 L173.420744,9.12864198 L173.420744,10.7025926 L165.639771,10.7025926 L165.639771,17.9366667 L173.841146,17.9366667 L173.841146,19.512963 L163.723298,19.512963 L163.723298,0.766296296" id="Fill-11"></path>
                        <path d="M179.731481,0.766296296 L179.731481,17.9366667 L187.651023,17.9366667 L187.651023,19.512963 L177.815009,19.512963 L177.815009,0.766296296 L179.731481,0.766296296" id="Fill-12"></path>
                    </g>
                    <g id="Imported-Layers-7" transform="translate(225.000000, 0.000000)">
                        <path d="M3.62595679,9.1018882 L3.62595679,2.34491925 L6.71923457,2.34491925 C7.49506173,2.34491925 8.06,2.40499379 8.41196296,2.5261118 C8.76384568,2.64737888 9.04647531,2.86308075 9.25824691,3.17440994 C9.47025926,3.48462112 9.57674691,3.8404472 9.57674691,4.23957764 C9.57674691,4.74551553 9.41512963,5.16469565 9.09438272,5.49495652 C8.77467901,5.82618634 8.29343827,6.03309317 7.65539506,6.1197764 C7.97389506,6.2910559 8.23598148,6.48119255 8.44197531,6.6868323 C8.64901235,6.89135404 8.92682716,7.25836025 9.27991358,7.78315528 L10.166963,9.1018882 L8.4096358,9.1018882 L7.3477284,7.63192547 C6.9707284,7.10489441 6.71209259,6.77470807 6.57438889,6.63793789 C6.43443827,6.5011677 6.28710494,6.4077764 6.13150617,6.35768944 C5.97711111,6.30551553 5.7304321,6.28106832 5.39170988,6.28106832 L5.0947963,6.28106832 L5.0947963,9.1018882 L3.62595679,9.1018882 L3.62595679,9.1018882 Z M5.0947963,5.20248447 L6.18294444,5.20248447 C6.88566667,5.20248447 7.32622222,5.17468323 7.501,5.11908075 C7.67577778,5.06347826 7.81460494,4.96896894 7.91403086,4.83331677 C8.01337654,4.6976646 8.06240741,4.52981366 8.06240741,4.32745342 C8.06240741,4.09945342 7.99660494,3.91609938 7.86612346,3.77590062 C7.73692593,3.63696894 7.55251852,3.54685714 7.31298148,3.51018634 C7.19461728,3.49572671 6.83775926,3.48797516 6.24168519,3.48797516 L5.0947963,3.48797516 L5.0947963,5.20248447 L5.0947963,5.20248447 Z" id="Fill-1"></path>
                        <path d="M12.9286605,5.9818882 C12.9286605,9.2764472 10.0520494,11.9482733 6.5037716,11.9482733 C2.95677778,11.9482733 0.0800864198,9.2764472 0.0800864198,5.9818882 C0.0800864198,2.68628571 2.95677778,0.0143850932 6.5037716,0.0143850932 C10.0520494,0.0143850932 12.9286605,2.68628571 12.9286605,5.9818882 L12.9286605,5.9818882 Z M6.5037716,11.0232298 C9.49778395,11.0232298 11.932716,8.76275776 11.932716,5.9818882 C11.932716,3.20109317 9.49778395,0.939503106 6.5037716,0.939503106 C3.50983951,0.939503106 1.07611111,3.20109317 1.07611111,5.9818882 C1.07611111,8.76275776 3.50983951,11.0232298 6.5037716,11.0232298 L6.5037716,11.0232298 Z" id="Fill-2"></path>
                    </g>
                    <path d="M26.8277688,6.26673741 L20.741059,6.26673741 C20.9039419,5.54386841 20.9109682,5.06008302 20.9109682,4.99391367 L20.9109682,4.36967446 C20.9109682,2.19794625 19.359429,0 16.3955993,0 C15.1334166,0.000624239208 13.9491622,0.484409626 13.1622144,1.05121883 C12.4110368,0.493773214 11.2957682,0.000624239208 10.0080353,0 C6.96627729,0 5.58081466,2.26536409 5.58081466,4.36967446 L5.58081466,4.99391367 C5.58081466,5.43649927 5.62488885,5.85910921 5.6989846,6.26673741 L0,6.26673741 L0,20 L26.8277688,20 L26.8277688,6.26673741 L26.8277688,6.26673741 Z M6.85832746,4.36967446 C6.85832746,2.81594307 7.83179221,1.24847842 10.0080353,1.24847842 C11.1948447,1.24910266 12.203441,1.82277849 12.7061423,2.31405475 L13.1577431,2.75539187 L13.6093438,2.31405475 C14.1344016,1.80155436 15.2298688,1.24910266 16.3955993,1.24847842 C18.6203878,1.24847842 19.6334554,2.86650645 19.6334554,4.36967446 L19.6334554,4.99391367 C19.6334554,5.05571335 19.6257904,5.54636537 19.4373572,6.26673741 C19.3421825,6.63191735 19.1991011,7.05640001 18.9876727,7.51521583 C18.2467153,9.12013484 16.6574894,11.1389244 13.2382264,12.4754206 L13.2056498,12.4866569 L13.2018173,12.4847842 C9.8023557,11.1557789 8.22590491,9.12762571 7.49389008,7.51521583 C7.28565549,7.05640001 7.14512908,6.63191735 7.05123189,6.26673741 C6.86599254,5.54698961 6.85832746,5.05571335 6.85832746,4.99391367 L6.85832746,4.36967446 L6.85832746,4.36967446 Z M25.550256,18.7515216 L1.2775128,18.7515216 L1.2775128,7.51521583 L6.04327429,7.51521583 C7.58650976,11.5865039 12.478745,13.5466151 12.7067811,13.6358813 L13.1532718,13.8275227 L13.6866334,13.6439964 C17.8430213,12.0191017 19.6066277,9.43787259 20.3558889,7.51521583 L25.550256,7.51521583 L25.550256,18.7515216 L25.550256,18.7515216 Z" id="Imported-Layers-3"></path>
                </g>
            </g>
        </g>
    </g>
</svg>