<?xml version="1.0" encoding="UTF-8" standalone="no"?>
<svg width="408px" height="180px" viewBox="0 0 408 180" version="1.1" xmlns="http://www.w3.org/2000/svg" xmlns:xlink="http://www.w3.org/1999/xlink" xmlns:sketch="http://www.bohemiancoding.com/sketch/ns">
    <!-- Generator: Sketch 3.3.1 (12002) - http://www.bohemiancoding.com/sketch -->
    <title>logo</title>
    <desc>Created with Sketch.</desc>
    <defs></defs>
    <g id="Page-1" stroke="none" stroke-width="1" fill="none" fill-rule="evenodd" sketch:type="MSPage">
        <g id="logo" sketch:type="MSArtboardGroup" fill="#FFFFFF">
            <path d="M85.84,58.82 C82.639984,58.82 78.2000284,58.3000052 72.52,57.26 C64.51996,63.3400304 57.120034,66.38 50.32,66.38 L49.6,66.38 C44.7199756,66.2999996 40.9000138,65.0000126 38.14,62.48 C35.3799862,59.9599874 34,56.600021 34,52.4 C34,48.199979 35.3799862,44.7800132 38.14,42.14 C40.9000138,39.4999868 44.9999728,38.18 50.44,38.18 C54.040018,38.18 59.7999604,39.379988 67.72,41.78 C76.0400416,44.2600124 82.2399796,45.5 86.32,45.5 C93.0400336,45.5 97.4799892,43.100024 99.64,38.3 L104.32,41.54 C102.559991,53.0600576 96.4000528,58.82 85.84,58.82 L85.84,58.82 Z M45.88,56.06 C45.88,58.06001 47.5999828,59.06 51.04,59.06 C54.4800172,59.06 58.6799752,57.7800128 63.64,55.22 C56.5999648,53.4599912 51.7600132,52.58 49.12,52.58 C48.2399956,52.58 47.4800032,52.9199966 46.84,53.6 C46.1999968,54.2800034 45.88,55.0999952 45.88,56.06 L45.88,56.06 Z M78.64,64.94 L76.72,77.78 L94.6,77.78 C95.3200036,79.4600084 95.68,81.099992 95.68,82.7 C95.68,84.300008 94.9200076,85.6399946 93.4,86.72 C91.8799924,87.8000054 89.9600116,88.34 87.64,88.34 L75.04,88.34 L74.92,89.42 C85.0000504,94.220024 90.04,101.339953 90.04,110.78 C90.04,117.900036 88.1600188,122.919985 84.4,125.84 C80.6399812,128.760015 76.2000256,130.22 71.08,130.22 C65.9599744,130.22 62.000014,128.920013 59.2,126.32 C56.399986,123.719987 55,120.260022 55,115.94 C55,115.219996 55.0799992,114.300006 55.24,113.18 L58.48,88.34 L47.2,88.34 C47.6800024,83.7799772 48.0799984,80.2600124 48.4,77.78 L59.92,77.78 L61.24,67.22 C65.4000208,65.21999 68.879986,64.22 71.68,64.22 C74.480014,64.22 76.7999908,64.4599976 78.64,64.94 L78.64,64.94 Z M74.8,119.3 C76.7200096,119.3 78.3999928,118.600007 79.84,117.2 C81.2800072,115.799993 82,113.580015 82,110.54 C82,104.53997 79.2800272,99.940016 73.84,96.74 C72.5599936,105.620044 71.9000002,111.159989 71.86,113.36 C71.8199998,115.560011 72.099997,117.099996 72.7,117.98 C73.300003,118.860004 73.999996,119.3 74.8,119.3 L74.8,119.3 Z M137.08,87.5 C137.08,83.9799824 135.460016,82.22 132.22,82.22 C128.979984,82.22 126.40001,84.2999792 124.48,88.46 C133.120043,95.260034 137.44,102.899958 137.44,111.38 C137.44,117.540031 135.720017,122.219984 132.28,125.42 C128.839983,128.620016 124.520026,130.22 119.32,130.22 C114.119974,130.22 110.320012,128.600016 107.92,125.36 C105.519988,122.119984 104.32,118.020025 104.32,113.06 C104.32,111.539992 104.36,110.420004 104.44,109.7 L108.64,73.1 C111.520014,72.2199956 114.439985,71.78 117.4,71.78 C122.280024,71.78 124.72,73.579982 124.72,77.18 L124.72,77.42 C127.920016,73.6599812 131.999975,71.78 136.96,71.78 C140.560018,71.78 143.35999,72.5999918 145.36,74.24 C147.36001,75.8800082 148.36,78.0599864 148.36,80.78 C148.36,83.5000136 147.34001,85.7199914 145.3,87.44 C143.25999,89.1600086 140.600016,90.02 137.32,90.02 L136.84,90.02 C137.000001,89.1399956 137.08,88.300004 137.08,87.5 L137.08,87.5 Z M320.921528,113.967244 C318.31281,117.762426 315.152309,119.66 311.44,119.66 L310.72,119.66 C307.359983,119.499999 304.960007,116.46003 303.52,110.54 C303.039998,108.53999 302.680001,106.820007 302.44,105.38 C312.36005,100.979978 317.32,94.6200416 317.32,86.3 C317.32,81.5799764 315.700016,77.9400128 312.46,75.38 C309.219984,72.8199872 305.120025,71.54 300.16,71.54 C293.519967,71.54 288.000022,73.5799796 283.6,77.66 C284.960007,69.9799616 286.439992,58.9000724 288.04,44.42 L288.04,43.7 C288.04,40.0199816 284.920031,38.18 278.68,38.18 C275.799986,38.18 273.520008,38.4999968 271.84,39.14 C270.876793,48.1299301 268.444662,69.3093401 264.543554,102.678697 C261.715856,106.794699 258.38802,110.295115 254.56,113.18 C249.039972,117.340021 243.28003,119.42 237.28,119.42 C233.19998,119.42 229.780014,118.000014 227.02,115.16 C224.259986,112.319986 222.88,108.000029 222.88,102.2 C222.88,96.399971 224.299986,91.400021 227.14,87.2 C229.980014,82.999979 233.279981,80.9 237.04,80.9 C238.800009,80.9 240.419993,81.399995 241.9,82.4 C243.380007,83.400005 244.12,85.2799862 244.12,88.04 C244.12,90.8000138 242.900012,93.6599852 240.46,96.62 C238.019988,99.5800148 234.320025,101.579995 229.36,102.62 L231.04,109.7 C239.600043,108.179992 246.339975,105.500019 251.26,101.66 C256.180025,97.8199808 258.64,92.8200308 258.64,86.66 C258.56,82.0999772 256.600019,78.4800134 252.76,75.8 C248.919981,73.1199866 243.920031,71.78 237.76,71.78 C229.119957,71.78 221.700031,74.8599692 215.5,81.02 C209.299969,87.1800308 206.2,94.3799588 206.2,102.62 C206.2,103.689437 206.241773,104.733943 206.32532,105.753518 L206.32532,105.753518 C204.038139,108.566958 201.476372,111.042445 198.64,113.18 C193.119972,117.340021 187.36003,119.42 181.36,119.42 C177.27998,119.42 173.860014,118.000014 171.1,115.16 C168.339986,112.319986 166.96,108.000029 166.96,102.2 C166.96,96.399971 168.379986,91.400021 171.22,87.2 C174.060014,82.999979 177.359981,80.9 181.12,80.9 C182.880009,80.9 184.499993,81.399995 185.98,82.4 C187.460007,83.400005 188.2,85.2799862 188.2,88.04 C188.2,90.8000138 186.980012,93.6599852 184.54,96.62 C182.099988,99.5800148 178.400025,101.579995 173.44,102.62 L175.12,109.7 C183.680043,108.179992 190.419975,105.500019 195.34,101.66 C200.260025,97.8199808 202.72,92.8200308 202.72,86.66 C202.64,82.0999772 200.680019,78.4800134 196.84,75.8 C192.999981,73.1199866 188.000031,71.78 181.84,71.78 C173.199957,71.78 165.780031,74.8599692 159.58,81.02 C153.379969,87.1800308 150.28,94.3799588 150.28,102.62 C150.28,110.860041 152.759975,117.619974 157.72,122.9 C162.360023,127.780024 168.67996,130.22 176.68,130.22 C181.560024,130.22 186.299977,129.340009 190.9,127.58 C195.500023,125.819991 199.479983,123.540014 202.84,120.74 C204.965599,118.918058 206.887086,117.084119 208.604466,115.238178 C209.821197,118.067687 211.499706,120.621623 213.64,122.9 C218.280023,127.780024 224.59996,130.22 232.6,130.22 C237.480024,130.22 242.219977,129.340009 246.82,127.58 C251.420023,125.819991 255.399983,123.540014 258.76,120.74 C260.22844,119.481337 261.599467,118.216949 262.873082,116.946833 L262.873082,116.946833 C262.399847,120.98358 261.908819,125.167969 261.4,129.5 L277.36,129.5 C277.680002,126.539985 278.379995,120.680044 279.46,111.92 C280.540005,103.159956 281.319998,96.7400204 281.8,92.66 C282.440003,89.6999852 283.75999,87.1600106 285.76,85.04 C287.76001,82.9199894 290.159986,81.86 292.96,81.86 C298.080026,81.86 300.64,84.4199744 300.64,89.54 C300.64,92.5000148 299.320013,95.279987 296.68,97.88 C294.039987,100.480013 290.440023,102.339994 285.88,103.46 C286.360002,107.54002 287.279993,111.53998 288.64,115.46 C292.160018,125.300049 298.319956,130.22 307.12,130.22 C310.880019,130.22 314.879979,129.100011 319.12,126.86 C320.627333,126.056089 322.063651,124.920852 323.428972,123.454271 C323.920443,124.165213 324.484119,124.820455 325.12,125.42 C327.920014,128.060013 331.639977,129.579998 336.28,129.98 C329.719967,136.140031 326.44,142.459968 326.44,148.94 C326.44,154.220026 328.079984,158.239986 331.36,161 C334.640016,163.760014 338.559977,165.14 343.12,165.14 C350.240036,165.14 355.639982,162.800023 359.32,158.12 C363.000018,153.439977 365.279996,147.500036 366.16,140.3 L368.08,125.3 C375.280036,127.460011 379.679992,133.53995 381.28,143.54 C384.000014,140.259984 385.519998,137.860008 385.84,136.34 C383.999991,125.139944 378.400047,118.700008 369.04,117.02 L374.68,72.74 C372.59999,72.0999968 370.280013,71.78 367.72,71.78 C366.279993,71.78 364.420011,72.2199956 362.14,73.1 C359.859989,73.9800044 358.360004,75.1799924 357.64,76.7 C356.999997,81.5800244 356.200005,88.3999562 355.24,97.16 C354.279995,105.920044 353.680001,111.219991 353.44,113.06 C350.959988,116.740018 347.76002,118.58 343.84,118.58 C339.519978,118.58 337.36,116.220024 337.36,111.5 C337.36,111.019998 337.439999,110.140006 337.6,108.86 L341.56,78.26 C341.56,76.3399904 341.080005,74.8600052 340.12,73.82 C339.159995,72.7799948 338.160005,72.1800008 337.12,72.02 C336.079995,71.8599992 334.52001,71.78 332.44,71.78 C330.35999,71.78 328.080012,72.2199956 325.6,73.1 C324.879996,78.9400292 324.200003,84.459974 323.56,89.66 C322.919997,94.860026 322.320003,99.6999776 321.76,104.18 C321.223884,108.468927 320.944396,111.731312 320.921528,113.967244 Z M122.44,96.86 C120.999993,108.380058 120.28,114.18 120.28,114.26 C120.28,117.620017 121.639986,119.3 124.36,119.3 C127.880018,119.3 129.64,116.460028 129.64,110.78 C129.64,106.139977 127.240024,101.500023 122.44,96.86 Z M337.72,152.54 C339.000006,153.820006 340.699989,154.46 342.82,154.46 C344.940011,154.46 346.559994,153.580009 347.68,151.82 C348.800006,150.059991 349.679997,146.540026 350.32,141.26 L351.88,128.06 C341.399948,133.500027 336.040001,139.699965 335.8,146.66 C335.8,149.300013 336.439994,151.259994 337.72,152.54 L337.72,152.54 Z" id="Slogan-Copy" sketch:type="MSShapeGroup"></path>
        </g>
    </g>
</svg>