<?xml version="1.0" encoding="UTF-8" standalone="no"?>
<svg width="408px" height="84px" viewBox="0 0 408 84" version="1.1" xmlns="http://www.w3.org/2000/svg" xmlns:xlink="http://www.w3.org/1999/xlink" xmlns:sketch="http://www.bohemiancoding.com/sketch/ns">
    <!-- Generator: Sketch 3.3.1 (12002) - http://www.bohemiancoding.com/sketch -->
    <title>Artboard 6</title>
    <desc>Created with Sketch.</desc>
    <defs></defs>
    <g id="Page-1" stroke="none" stroke-width="1" fill="none" fill-rule="evenodd" sketch:type="MSPage">
        <g id="Artboard-6" sketch:type="MSArtboardGroup" fill="#393939">
            <g id="Logo-Copy-3" sketch:type="MSLayerGroup" transform="translate(5.000000, 3.660000)">
                <path d="M40,0.0781853282 C17.9139013,0.0781853282 0.00896860987,17.9517375 0.00896860987,40 C0.00896860987,62.0482625 17.9139013,79.9218147 40,79.9218147 C62.0860987,79.9218147 79.9910314,62.0482625 79.9910314,40 C79.9910314,17.9517375 62.0860987,0.0781853282 40,0.0781853282 L40,0.0781853282 Z M40,76.8204633 C19.6295964,76.8204633 3.11569507,60.3359073 3.11569507,40 C3.11569507,19.6640927 19.6295964,3.17953668 40,3.17953668 C60.3713004,3.17953668 76.8843049,19.6650579 76.8843049,40 C76.8843049,60.3359073 60.3713004,76.8204633 40,76.8204633 L40,76.8204633 Z" id="Shape-Copy-9" sketch:type="MSShapeGroup"></path>
                <path d="M40,15.3619691 C32.6376682,15.3619691 26.6699552,21.3194981 26.6699552,28.6689189 L26.6699552,40.8137066 C26.6699552,46.6013514 30.3775785,51.511583 35.5461883,53.3436293 C28.9659193,54.3243243 26.6699552,57.5868726 26.6699552,61.4710425 C26.6699552,66.1303089 29.9506726,69.9083012 40,69.9083012 C50.0493274,69.9083012 53.3300448,66.1312741 53.3300448,61.4710425 C53.3300448,57.5868726 51.0340807,54.3243243 44.4538117,53.3436293 C49.6224215,51.511583 53.3300448,46.6013514 53.3300448,40.8137066 L53.3300448,28.6698842 C53.3300448,21.3204633 47.3623318,15.3619691 40,15.3619691 L40,15.3619691 Z M32.8816143,24.3532819 C32.8816143,21.784749 36.0681614,19.7017375 40,19.7017375 C43.9309417,19.7017375 47.1183857,21.7837838 47.1183857,24.3532819 L47.1183857,26.1621622 C47.1183857,28.730695 43.9318386,28.7992278 40,28.7992278 C36.0690583,28.7992278 32.8816143,28.730695 32.8816143,26.1621622 L32.8816143,24.3532819 L32.8816143,24.3532819 Z M43.1058296,46.3166023 L36.8941704,46.3166023 C34.1784753,46.3166023 31.9757848,44.1187259 31.9757848,41.4073359 C31.9757848,38.6959459 34.1775785,36.4980695 36.8941704,36.4980695 L43.1058296,36.4980695 C45.8224215,36.4980695 48.0242152,38.6959459 48.0242152,41.4073359 C48.0242152,44.1187259 45.8224215,46.3166023 43.1058296,46.3166023 L43.1058296,46.3166023 Z" id="Shape-Copy-10" sketch:type="MSShapeGroup"></path>
            </g>
            <path d="M131.665406,15.6656711 C129.649013,15.6656711 126.85131,15.3380121 123.272212,14.6826843 C118.231229,18.5138314 113.568389,20.4293762 109.283554,20.4293762 L108.829868,20.4293762 C105.754868,20.3789664 103.347835,19.5598189 101.608696,17.9719093 C99.8695565,16.3839996 99,14.2668185 99,11.6203025 C99,8.97378639 99.8695565,6.81879849 101.608696,5.1552741 C103.347835,3.49174972 105.9313,2.66 109.359168,2.66 C111.627611,2.66 115.257064,3.41613611 120.247637,4.928431 C125.490259,6.49113573 129.396963,7.27247637 131.967864,7.27247637 C136.20229,7.27247637 138.999993,5.76020416 140.361059,2.73561437 L143.310019,4.77720227 C142.201003,12.0362178 138.319504,15.6656711 131.665406,15.6656711 L131.665406,15.6656711 Z M106.485822,13.9265406 C106.485822,15.1867864 107.569617,15.8168998 109.73724,15.8168998 C111.904863,15.8168998 114.551339,15.0103546 117.676749,13.3972401 C113.240684,12.2882238 110.190935,11.733724 108.52741,11.733724 C107.972902,11.733724 107.494016,11.9479626 107.090737,12.3764461 C106.687459,12.8049297 106.485822,13.3216227 106.485822,13.9265406 L106.485822,13.9265406 Z M127.128544,19.5220038 L125.918715,27.612741 L137.185255,27.612741 C137.638944,28.6713474 137.865784,29.7047335 137.865784,30.7129301 C137.865784,31.7211267 137.386898,32.5654786 136.429112,33.2460113 C135.471325,33.926544 134.261507,34.2668053 132.799622,34.2668053 L124.860113,34.2668053 L124.784499,34.9473346 C131.136138,37.9719244 134.311909,42.4583319 134.311909,48.4066919 C134.311909,52.8931667 133.127296,56.0563361 130.758034,57.8962949 C128.388772,59.7362537 125.591068,60.6562193 122.364839,60.6562193 C119.13861,60.6562193 116.643361,59.8370718 114.879017,58.1987524 C113.114673,56.5604329 112.232514,54.3802405 112.232514,51.6581096 C112.232514,51.2044212 112.282923,50.6247168 112.383743,49.9189792 L114.425331,34.2668053 L107.31758,34.2668053 C107.620039,31.393445 107.872085,29.1754457 108.073724,27.612741 L115.332703,27.612741 L116.164461,20.9586767 C118.785772,19.698431 120.978567,19.0683176 122.742911,19.0683176 C124.507255,19.0683176 125.969118,19.2195448 127.128544,19.5220038 L127.128544,19.5220038 Z M124.708885,53.7753119 C125.918721,53.7753119 126.977311,53.3342325 127.884688,52.4520605 C128.792065,51.5698885 129.245747,50.1710367 129.245747,48.2554631 C129.245747,44.4747259 127.531838,41.5762042 124.10397,39.559811 C123.297412,45.1553021 122.881538,48.6461304 122.856333,50.0324008 C122.831128,51.4186711 123.00756,52.3890457 123.385633,52.9435539 C123.763707,53.498062 124.204786,53.7753119 124.708885,53.7753119 L124.708885,53.7753119 Z M163.952741,33.7375047 C163.952741,31.5194722 162.931957,30.4104726 160.890359,30.4104726 C158.848761,30.4104726 157.223068,31.7211085 156.013233,34.3424197 C161.457494,38.6272552 164.179584,43.4413217 164.179584,48.7847637 C164.179584,52.6663206 163.095789,55.6152514 160.928166,57.6316446 C158.760544,59.6480378 156.038454,60.6562193 152.761815,60.6562193 C149.485176,60.6562193 147.090745,59.6354355 145.57845,57.5938374 C144.066155,55.5522393 143.310019,52.9687743 143.310019,49.8433648 C143.310019,48.8855781 143.335223,48.179851 143.385633,47.7261626 L146.032136,24.6637807 C147.84689,24.1092726 149.686821,23.8320227 151.551985,23.8320227 C154.626984,23.8320227 156.164461,24.9662268 156.164461,27.2346692 L156.164461,27.3858979 C158.180854,25.0166359 160.751717,23.8320227 163.877127,23.8320227 C166.145569,23.8320227 167.909887,24.3487157 169.170132,25.3821172 C170.430378,26.4155187 171.060491,27.789166 171.060491,29.5031002 C171.060491,31.2170344 170.417776,32.6158862 169.132325,33.6996975 C167.846874,34.7835089 166.170773,35.3254064 164.10397,35.3254064 L163.801512,35.3254064 C163.902332,34.7708983 163.952741,34.241603 163.952741,33.7375047 L163.952741,33.7375047 Z M279.794914,50.4150372 C278.151109,52.806456 276.159615,54.002155 273.820416,54.002155 L273.36673,54.002155 C271.249517,53.9013353 269.737245,51.9857905 268.829868,48.2554631 C268.527409,46.9952174 268.300568,45.9114223 268.149338,45.0040454 C274.400157,42.2315047 277.52552,38.2239834 277.52552,32.9813611 C277.52552,30.0071811 276.504736,27.7135682 274.463138,26.1004537 C272.42154,24.4873391 269.838075,23.680794 266.712665,23.680794 C262.52865,23.680794 259.050423,24.9662253 256.277883,27.5371267 C257.13485,22.697783 258.067418,15.7161263 259.075614,6.59194707 L259.075614,6.13826087 C259.075614,3.8194087 257.10966,2.66 253.177694,2.66 C251.36294,2.66 249.926281,2.86163629 248.867675,3.26491493 C248.260739,8.9296472 246.728206,22.2752111 244.27004,43.3019012 C242.488252,45.8954753 240.391317,48.1011565 237.979206,49.9189792 C234.500928,52.5402904 230.871474,53.8509263 227.090737,53.8509263 C224.519836,53.8509263 222.364848,52.9561652 220.625709,51.1666163 C218.88657,49.3770673 218.017013,46.6549773 218.017013,43.0002647 C218.017013,39.345552 218.911774,36.1949849 220.701323,33.5484688 C222.490872,30.9019527 224.570247,29.5787146 226.939509,29.5787146 C228.048525,29.5787146 229.069309,29.8937713 230.00189,30.5238941 C230.934472,31.154017 231.400756,32.3386302 231.400756,34.0777694 C231.400756,35.8169085 230.632018,37.6190329 229.094518,39.4841966 C227.557018,41.3493603 225.225598,42.6095871 222.100189,43.2649149 L223.15879,47.7261626 C228.552642,46.7683758 232.799606,45.0796718 235.899811,42.66 C239.000016,40.2403282 240.550095,37.0897611 240.550095,33.2082042 C240.499685,30.3348439 239.264662,28.0538333 236.844991,26.365104 C234.425319,24.6763747 231.274752,23.8320227 227.393195,23.8320227 C221.948933,23.8320227 217.273491,25.772772 213.36673,29.6543289 C209.459968,33.5358858 207.506616,38.0727025 207.506616,43.2649149 C207.506616,43.9387884 207.532938,44.5969522 207.585583,45.2394065 L207.585583,45.2394065 C206.144385,47.0122105 204.530165,48.5720634 202.742911,49.9189792 C199.264633,52.5402904 195.63518,53.8509263 191.854442,53.8509263 C189.283541,53.8509263 187.128553,52.9561652 185.389414,51.1666163 C183.650275,49.3770673 182.780718,46.6549773 182.780718,43.0002647 C182.780718,39.345552 183.675479,36.1949849 185.465028,33.5484688 C187.254577,30.9019527 189.333952,29.5787146 191.703214,29.5787146 C192.81223,29.5787146 193.833014,29.8937713 194.765595,30.5238941 C195.698177,31.154017 196.164461,32.3386302 196.164461,34.0777694 C196.164461,35.8169085 195.395723,37.6190329 193.858223,39.4841966 C192.320723,41.3493603 189.989304,42.6095871 186.863894,43.2649149 L187.922495,47.7261626 C193.316347,46.7683758 197.563312,45.0796718 200.663516,42.66 C203.763721,40.2403282 205.3138,37.0897611 205.3138,33.2082042 C205.26339,30.3348439 204.028367,28.0538333 201.608696,26.365104 C199.189024,24.6763747 196.038457,23.8320227 192.1569,23.8320227 C186.712638,23.8320227 182.037197,25.772772 178.130435,29.6543289 C174.223673,33.5358858 172.270321,38.0727025 172.270321,43.2649149 C172.270321,48.4571274 173.833003,52.7166941 176.958412,56.0437429 C179.882182,59.1187425 183.864499,60.6562193 188.905482,60.6562193 C191.980482,60.6562193 194.967219,60.1017195 197.865784,58.9927032 C200.76435,57.883687 203.272201,56.4470284 205.389414,54.6826843 C206.728796,53.534643 207.939563,52.3790419 209.021718,51.2158775 C209.788404,52.9988074 210.846066,54.6080925 212.194707,56.0437429 C215.118477,59.1187425 219.100794,60.6562193 224.141777,60.6562193 C227.216777,60.6562193 230.203514,60.1017195 233.102079,58.9927032 C236.000645,57.883687 238.508496,56.4470284 240.625709,54.6826843 C241.551002,53.8895761 242.414913,53.09286 243.217443,52.2925348 L243.217443,52.2925348 C242.919248,54.8361686 242.609842,57.4728346 242.289225,60.2025331 L252.345936,60.2025331 C252.547575,58.3373694 252.988654,54.6449047 253.669187,49.1250284 C254.34972,43.605152 254.841208,39.5598238 255.143667,36.9889225 C255.546946,35.1237588 256.378696,33.5232707 257.638941,32.1874102 C258.899187,30.8515497 260.411459,30.1836295 262.175803,30.1836295 C265.402033,30.1836295 267.015123,31.7967198 267.015123,35.022949 C267.015123,36.8881127 266.183373,38.639828 264.519849,40.2781474 C262.856324,41.9164669 260.587916,43.0884779 257.714556,43.7942155 C258.017015,46.3651168 258.596719,48.8855705 259.453686,51.3556522 C261.671719,57.5560612 265.553217,60.6562193 271.098299,60.6562193 C273.467561,60.6562193 275.988014,59.9504922 278.659735,58.539017 C279.609535,58.0324569 280.514588,57.3171213 281.374903,56.3930003 C281.684589,56.8409783 282.039772,57.2538595 282.440454,57.6316446 C284.204798,59.295169 286.54882,60.2529414 289.47259,60.5049905 C285.338984,64.3865474 283.272212,68.3688643 283.272212,72.4520605 C283.272212,75.7791093 284.305598,78.3121652 286.372401,80.0513043 C288.439204,81.7904435 290.909248,82.66 293.782609,82.66 C298.269084,82.66 301.671696,81.1855346 303.990548,78.2365595 C306.3094,75.2875845 307.746059,71.5447108 308.300567,67.0078261 L309.510397,57.5560302 C314.047282,58.9170957 316.819781,62.7481853 317.827977,69.049414 C319.541912,66.982611 320.499684,65.4703388 320.701323,64.512552 C319.541897,57.4551758 316.013262,53.3972454 310.115312,52.3386389 L313.669187,24.4369376 C312.358532,24.033659 310.896668,23.8320227 309.283554,23.8320227 C308.376177,23.8320227 307.204166,24.1092726 305.767486,24.6637807 C304.330806,25.2182888 303.385636,25.974425 302.931947,26.9322117 C302.528668,30.0072113 302.024578,34.3045849 301.41966,39.8244612 C300.814742,45.3443376 300.436674,48.6839388 300.285444,49.8433648 C298.72274,52.162217 296.706377,53.3216257 294.236295,53.3216257 C291.514164,53.3216257 290.153119,51.834558 290.153119,48.8603781 C290.153119,48.5579191 290.203528,48.0034193 290.304348,47.196862 L292.799622,27.9151985 C292.799622,26.7053626 292.497167,25.7727947 291.89225,25.1174669 C291.287332,24.4621391 290.657218,24.0840711 290.00189,23.9832514 C289.346563,23.8824318 288.363586,23.8320227 287.05293,23.8320227 C285.742274,23.8320227 284.305616,24.1092726 282.742911,24.6637807 C282.289223,28.3436983 281.860746,31.8219244 281.457467,35.0985633 C281.054188,38.3752023 280.67612,41.4249512 280.323251,44.2479017 C279.985434,46.9504393 279.809323,49.0061325 279.794914,50.4150372 Z M154.727788,39.6354253 C153.820411,46.8944408 153.36673,50.5490987 153.36673,50.5995085 C153.36673,52.7167214 154.223684,53.7753119 155.937618,53.7753119 C158.155651,53.7753119 159.26465,51.9857898 159.26465,48.4066919 C159.26465,45.4829217 157.752378,42.5591955 154.727788,39.6354253 Z M290.379962,74.7204915 C291.186519,75.5270488 292.257712,75.9303214 293.593573,75.9303214 C294.929433,75.9303214 295.950217,75.3758216 296.655955,74.2668053 C297.361692,73.157789 297.916192,70.9397898 298.319471,67.612741 L299.302457,59.2951607 C292.69877,62.7230291 289.321362,66.6297323 289.170132,71.0153875 C289.170132,72.6789119 289.573405,73.9139342 290.379962,74.7204915 L290.379962,74.7204915 Z" id="Slogan-Copy-3" sketch:type="MSShapeGroup"></path>
        </g>
    </g>
</svg>