<?xml version="1.0" encoding="UTF-8" standalone="no"?>
<svg width="800px" height="263px" viewBox="0 0 800 263" version="1.1" xmlns="http://www.w3.org/2000/svg" xmlns:xlink="http://www.w3.org/1999/xlink" xmlns:sketch="http://www.bohemiancoding.com/sketch/ns">
    <!-- Generator: Sketch 3.3.1 (12002) - http://www.bohemiancoding.com/sketch -->
    <title>Artboard 1</title>
    <desc>Created with Sketch.</desc>
    <defs></defs>
    <g id="Page-1" stroke="none" stroke-width="1" fill="none" fill-rule="evenodd" sketch:type="MSPage">
        <g id="Artboard-1" sketch:type="MSArtboardGroup" fill="#FFFFFF">
            <g id="cocacola-logo" sketch:type="MSLayerGroup">
                <g id="g3" sketch:type="MSShapeGroup">
                    <path d="M307.209,229.509 C277.441,210.333 237.042,206.968 171.889,225.044 C102.432,241.366 79.274,251.829 48.861,230.825 C37.177,220.507 32.988,203.894 36.116,179.964 C43.371,140.954 62.977,103.413 97.802,61.771 C117.241,40.109 135.272,21.519 159.082,14.054 C177.33,9.371 175.624,23.712 173.416,25.763 C171.086,25.763 167.172,26.13 164.147,28.104 C161.692,30.008 154.953,36.156 154.591,44.426 C154.069,57.086 167.171,54.451 172.822,47.5 C178.913,39.667 187.915,24.667 180.834,10.687 C177.866,5.711 172.738,2.272 166.371,1.101 C144.569,-0.145 124.264,10.248 105.525,21.738 C64.543,50.207 31.76,89.655 13.21,132.835 C2.515,158.888 -7.157,196.208 7.341,226.583 C18.556,247.659 41.84,258.854 69.619,256.513 C89.102,254.466 112.661,248.169 128.506,244.367 C144.351,240.559 225.46,212.678 252.11,261.203 C252.11,261.203 260.972,244 283.119,243.633 C301.327,241.953 327.594,248.904 346.723,262.953 C340.35,253.369 322.282,239.244 307.209,229.509 L307.209,229.509 L307.209,229.509 Z" id="path5"></path>
                    <path d="M180.16,66.674 C164.99,56.721 134.5,75.749 110.079,108.388 C87.747,137.665 78.104,171.692 88.598,187.427 C104.209,205.942 133.189,179.011 145.513,164.596 L147.103,162.911 C155.484,153.909 161.959,143.077 168.226,132.684 C168.226,132.684 173.986,123.17 174.261,122.73 C177.821,122.074 182.109,121.049 186.941,119.658 C186.872,119.876 168.454,150.834 170.333,166.2 C170.918,170.888 170.471,188.013 187.191,193.208 C209.475,196.943 227.269,179.669 242.967,164.3 C242.967,164.3 245.642,161.741 247.155,160.28 C246.772,161.813 246.273,163.858 246.273,163.858 C239.749,186.546 248.543,191.306 254.044,193.063 C270.669,197.896 290.53,173.743 290.594,173.743 C290.079,181.351 288.573,187.645 296.593,192.695 C304.163,195.405 311.824,191.274 317.647,187.395 C338.622,172.612 355.52,149.475 369.169,129.475 L360.463,129.475 C360.36,129.475 338.98,160.463 325.097,167.198 C325.075,167.198 322.549,168.495 321.093,167.469 C319.291,165.931 320.002,162.735 321.115,160.471 C321.185,160.323 374.718,67.475 374.718,67.475 L349.442,67.475 C349.442,67.475 346.681,71.942 346.456,72.235 C346.286,72.089 345.881,71.321 345.6,70.953 C329.94,49.291 294.477,82.611 267.778,121.251 C257.499,136.109 244.412,152.838 230.842,164.913 C230.842,164.913 210.739,183.341 202.149,170.101 C199.009,164.538 199.975,156.405 201.746,151.064 C211.747,122.595 228.98,96.758 248.59,81.168 C254.126,76.853 260.143,75.605 263.129,77.435 C265.974,79.121 266.433,83.289 264.633,86.144 C260.066,85.998 256.407,87.386 253.432,90.46 C247.572,96.608 245.536,102.537 247.399,108.1 C256.45,120.98 274.501,95.511 273.628,79.996 C273.316,74.433 270.348,69.165 265.919,66.601 C259.318,62.651 249.248,63.674 242.731,66.823 C234.007,70.115 220.197,81.604 212.136,90.534 C201.988,101.733 184.584,114.173 179.141,112.78 C180.924,108.021 195.625,77.943 180.16,66.674 L180.16,66.674 L180.16,66.674 Z M302.021,111.17 C306.938,104.365 321.249,86.141 324.738,83.068 C336.472,72.745 341.162,77.287 341.568,80.505 C330.617,100.118 317.692,122.587 305.54,142.787 C305.565,142.715 301.737,148.568 301.737,148.568 C296.37,156.763 290.966,163.789 282.151,168.692 C280.894,169.06 278.822,169.207 277.443,168.179 C275.783,167.081 275.128,165.251 275.315,163.347 C275.843,157.055 282.25,137.811 302.021,111.17 L302.021,111.17 L302.021,111.17 Z M164.516,122.952 C164.516,122.952 164.296,123.613 164.187,123.829 C164.159,123.829 153.167,141.757 153.167,141.757 C146.533,150.614 138.25,161.741 127.896,167.081 C124.827,168.106 120.585,168.766 118.423,166.06 C113.84,160.57 116.202,152.959 118.121,146.812 L118.8,144.616 C124.302,129.688 133.032,116.512 141.529,104.29 C141.635,104.218 141.873,104.145 141.959,104.145 C141.979,104.218 142.013,104.218 142.028,104.365 C147.36,114.609 157.358,119.364 164.835,121.563 C164.88,121.563 164.928,121.636 164.928,121.783 C164.929,122.001 164.807,122.296 164.516,122.952 L164.516,122.952 L164.516,122.952 Z M174.93,101.804 C174.882,101.95 170.034,113.073 170.034,113.073 C169.333,113.658 168.225,113.366 166.955,113.073 L164.779,112.705 C157.946,110.584 152.792,106.046 151.203,100.631 C149.011,90.092 158.014,81.822 161.981,78.823 C165.787,76.186 171.704,74.796 175.14,77.505 C177.259,79.994 178.062,83.213 178.062,86.728 C178.063,91.484 176.595,96.826 174.93,101.804 L174.93,101.804 L174.93,101.804 Z" id="path7"></path>
                    <path d="M494.47,135.759 C492.033,130.491 486.247,127.124 480.081,127.489 C460.058,129.32 440.473,145.786 430.19,169.423 C424.794,181.573 421.849,191.598 419.918,207.552 C426.144,200.382 438.844,188.6 453.256,182.159 C453.256,182.159 455.217,166.864 465.217,153.251 C469.001,147.614 476.574,138.54 485.077,140.954 C492.506,143.444 489.895,164.009 480.021,183.911 C472.715,198.55 461.535,213.191 450.223,223.288 C440.222,231.778 425.425,242.023 412.479,234.12 C404.325,229.292 400.166,219.19 401.045,206.163 C404.941,169.206 421.764,137.736 445.839,101.876 C470.663,68.577 498.027,34.4 534.89,16.174 C542.409,12.369 549.372,11.491 555.391,13.833 C555.391,13.833 520.787,32.861 504.292,68.064 C500.096,76.994 494.26,89.066 500.137,99.752 C503.208,105.313 508.661,105.753 513.051,105.46 C533.27,100.775 546.333,81.894 557.006,64.624 C563.194,51.524 568.694,38.497 568.694,24.006 C568.694,22.25 568.603,19.909 568.454,18.151 C578.114,13.03 597.922,22.103 597.922,22.103 C613.401,27.228 646.36,52.478 657.478,57.306 C662.901,51.013 671.813,41.5 676.831,36.742 L669.567,32.277 C657.937,25.178 645.644,18.444 633.544,11.785 C606.065,-3.216 583.698,2.052 572.314,6.151 C567.84,7.76 563.751,9.151 563.751,9.151 C555.303,-0.07 541.448,0.806 531.239,3.296 C494.525,13.834 460.438,39.521 423.893,84.092 C397.025,119.002 380.359,149.155 371.476,178.94 C364.629,198.991 362.548,228.485 379.26,245.977 C393.469,260.829 412.31,257.612 425.615,252.271 C454.442,238.073 480.351,207.48 493.261,172.278 C496.376,161.814 499.834,147.031 494.47,135.759 L494.47,135.759 L494.47,135.759 Z M560.756,25.471 C556.94,69.236 522.921,94.926 514.504,96.972 C509.403,97.995 500.699,95.728 508.469,77.361 C519.912,52.622 539.448,31.62 560.409,20.861 C560.919,22.691 560.906,23.859 560.756,25.471 L560.756,25.471 L560.756,25.471 Z" id="path9"></path>
                    <path d="M762.555,31.031 C744.256,41.425 725.287,48.156 702.324,45.815 C695.96,52.989 689.764,60.38 684.053,67.99 C716.282,76.187 750.45,57.964 769.505,40.621 C789.663,23.129 800,1.102 800,1.102 C800,1.102 784.89,18.372 762.555,31.031 L762.555,31.031 L762.555,31.031 Z" id="path11"></path>
                    <path d="M416.729,67.476 L392.725,67.476 L379.185,89.476 L403.184,89.476 L416.729,67.476 Z" id="polygon13"></path>
                    <path d="M702.228,231.546 C699.647,233.302 696.021,231.952 697.377,227.928 C700.754,217.682 714.18,196.802 714.18,196.802 L751.576,130.476 L725.96,130.476 C724.743,132.476 722.139,137.069 722.139,137.069 C720.954,135.095 717.41,130.705 715.951,129.757 C709.693,125.802 700.511,127.672 694.177,131.257 C666.638,147.36 646.545,179.175 630.699,203.986 C630.699,203.986 614.018,231.566 604.758,233.617 C597.529,234.203 598.275,224.465 598.588,222.196 C601.383,205.8 607.874,190.213 614.414,176.088 C627.715,166.867 642.895,154.792 656.69,141.546 C686.628,112.928 711.867,80.507 715.556,73.262 C715.556,73.262 711.563,74.068 706.848,74.213 C683.816,106.341 636.684,153.035 622.395,159.986 C628.725,144.761 669.622,72.09 704.425,37.328 L709.902,32.057 C718.37,23.787 727.145,15.298 733.983,13.907 C734.705,13.834 735.635,13.907 736.438,15.593 C736.743,22.032 734.346,26.79 731.596,32.205 L727.742,40.11 C727.742,40.11 733.201,39.085 736.786,37.911 C740.946,30.084 745.553,21.299 743.855,10.836 C743.288,7.469 740.851,4.908 737.666,4.322 C727.284,2.346 715.969,10.028 706.865,16.251 L706.497,16.469 C659.696,53.135 620.176,105.975 585.625,178.136 C583.121,180.036 573.446,182.307 571.801,181.208 C575.213,174.184 579.509,164.741 581.659,154.495 C582.031,151.567 582.377,148.568 582.377,145.641 C582.377,139.342 580.865,133.416 575.222,129.319 C568.606,126.025 560.429,127.563 554.916,130.05 C530.218,140.296 511.759,165.62 498.439,186.475 C491.275,199.725 484.132,213.916 482.154,230.166 C480.761,242.898 483.597,251.095 490.836,255.195 C498.281,258.998 507.651,255.045 511.332,253.144 C536.353,239.971 553.835,213.553 567.616,189.4 C568.164,189.328 575.688,189.11 581.379,187.644 C581.455,187.644 581.487,187.644 581.613,187.721 C581.287,188.814 578.346,197.599 578.346,197.599 C569.612,223.212 565.573,240.632 573.823,250.949 C585.612,265.514 605.129,250.439 621.006,230.529 C617.598,254.387 629.963,258.121 639.388,256.293 C650.215,253.367 662.28,241.801 667.879,235.875 C666.081,242.826 666.57,255.269 676.419,256.512 C683.17,257.76 688.222,254.088 694.068,250.94 C715.037,239.522 740.138,201.475 746.655,190.475 L738.11,190.475 C728.846,204.476 717.057,222.833 702.228,231.546 L702.228,231.546 L702.228,231.546 Z M514.01,228.998 C512.68,227.022 512.239,224.861 512.195,222.525 C511.94,208.175 527.379,182.476 538.277,168.476 L538.3,168.476 C542.867,178.476 553.209,184.904 559.452,187.613 C551.698,204.886 525.105,241.878 514.01,228.998 L514.01,228.998 L514.01,228.998 Z M563.828,179.891 C563.089,180.406 550.048,176.013 547.528,163.938 C545.39,153.542 552.549,145.419 559.475,141.324 C562.448,138.981 566.926,138.178 570.211,139.344 C573.26,141.396 574.086,145.058 574.086,149.004 C574.086,151.424 573.765,153.91 573.482,156.178 C573.482,156.178 573.428,156.619 573.419,156.692 C571.246,164.813 567.921,172.791 563.828,179.891 L563.828,179.891 L563.828,179.891 Z M668.424,224.388 C668.413,224.388 665.95,226.583 665.95,226.583 C662.432,229.728 658.812,233.095 654.442,231.411 C653.235,230.972 652.386,229.364 652.182,228.116 C651.983,219.114 656.037,210.773 659.968,202.651 L660.976,200.527 C672.284,181.646 685.428,159.398 704.732,143.958 C707.985,141.611 711.515,139.639 715.241,141.177 C716.098,141.98 717.096,143.372 717.096,144.761 C717.096,145.202 716.705,146.372 716.479,146.736 C711.088,155.449 705.953,164.596 700.96,173.377 C691.202,190.723 681.079,208.651 668.424,224.388 L668.424,224.388 L668.424,224.388 Z" id="path15"></path>
                </g>
            </g>
        </g>
    </g>
</svg>