<?xml version="1.0" encoding="utf-8"?>
<!-- Generator: Adobe Illustrator 17.0.0, SVG Export Plug-In . SVG Version: 6.00 Build 0)  -->
<!DOCTYPE svg PUBLIC "-//W3C//DTD SVG 1.1//EN" "http://www.w3.org/Graphics/SVG/1.1/DTD/svg11.dtd">
<svg version="1.1" id="Capa_1" xmlns="http://www.w3.org/2000/svg" xmlns:xlink="http://www.w3.org/1999/xlink" x="0px" y="0px"
	 width="144.271px" height="269.139px" viewBox="0 0 144.271 269.139" enable-background="new 0 0 144.271 269.139"
	 xml:space="preserve">
<g>
	<path fill="#FFFFFF" d="M87.026,268.507c12.66-60.764-2.246-135.684-4.098-144.526l-4.886,5.159
		c7.039,88.692-6.48,131.577-6.48,131.577L87.026,268.507z"/>
	<path fill="#FFFFFF" d="M144.272,264.748c0,0-2.046-65.893-31.44-142.951L84.06,122.8c0,0,17.98,80.903,4.22,146.339
		L144.272,264.748z"/>
	<g>
		<path fill="#FFFFFF" d="M103.432,107.895c8.742-1.189,15.384-4.951,19.72-11.314c8.812-12.928,8.881-37.394,0.194-65.438
			l-0.006-0.026L101.123,37.3C101.123,37.3,115.68,92.212,103.432,107.895z"/>
		<path fill="#FFFFFF" d="M31.243,0.579L0,14.451c0.388,2.812,15.9,104.771,91.858,102.597C50.156,108.98,32.586,8.598,31.243,0.579
			z"/>
	</g>
	<path fill="#FFFFFF" d="M97.226,116.231C51.953,116.231,33.288,4.764,32.519,0l6.313,0.011
		c0.177,1.117,18.223,109.673,58.395,109.673c12.366,0,21.461-4.148,27.04-12.342c9.053-13.28,9.137-38.287,0.374-66.6l6.776,0.8
		c9.316,30.081,8.047,54.672-2.156,69.64C122.46,111.173,111.675,116.231,97.226,116.231L97.226,116.231z"/>
	<path fill="#FFFFFF" d="M100.846,71.411c-3.44-12.331-13.183-20.137-21.766-17.426c-8.574,2.692-12.748,14.878-9.304,27.204
		c3.452,12.331,13.19,20.136,21.764,17.447C100.123,95.918,104.286,83.731,100.846,71.411z"/>
</g>
</svg>
