<?xml version="1.0" encoding="UTF-8" standalone="no"?>
<svg width="132px" height="99px" viewBox="0 0 132 99" version="1.1" xmlns="http://www.w3.org/2000/svg" xmlns:xlink="http://www.w3.org/1999/xlink" xmlns:sketch="http://www.bohemiancoding.com/sketch/ns">
    <!-- Generator: Sketch 3.3.1 (12002) - http://www.bohemiancoding.com/sketch -->
    <title>Imported-Layers-3 Copy</title>
    <desc>Created with Sketch.</desc>
    <defs></defs>
    <g id="Page-1" stroke="none" stroke-width="1" fill="none" fill-rule="evenodd" sketch:type="MSPage">
        <path d="M132,31.4285715 L102.051714,31.4285715 C102.853143,27.8718572 102.887714,25.4915001 102.887714,25.1659287 L102.887714,22.0945001 C102.887714,11.4090001 95.2537144,0.594500099 80.6708573,0.594500099 C74.4605713,0.597571527 68.633714,2.97792867 64.7617144,5.76678582 C61.065714,3.0240001 55.5782858,0.597571527 49.2422858,0.594500099 C34.276,0.594500099 27.4591428,11.7407144 27.4591428,22.0945001 L27.4591428,25.1659287 C27.4591428,27.3435715 27.676,29.4229286 28.0405714,31.4285715 L0,31.4285715 L0,99 L132,99 L132,31.4285715 L132,31.4285715 Z M33.7448571,22.0945001 C33.7448571,14.4497144 38.5345714,6.73735725 49.2422858,6.73735725 C55.0817145,6.74042868 60.0442856,9.56307152 62.5177142,11.9802858 L64.7397144,14.1517858 L66.961714,11.9802858 C69.5451428,9.45864297 74.9351426,6.74042868 80.6708573,6.73735725 C91.6174285,6.73735725 96.6019997,14.6985001 96.6019997,22.0945001 L96.6019997,25.1659287 C96.6019997,25.4700001 96.5642858,27.8841429 95.6371426,31.4285715 C95.1688569,33.2253572 94.4648571,35.3139286 93.4245712,37.5714286 C89.778857,45.4680715 81.9594286,55.4010713 65.1357143,61.9770001 L64.9754285,62.0322858 L64.9565716,62.0230716 C48.2302856,55.4840001 40.4737142,45.5049286 36.872,37.5714286 C35.8474285,35.3139286 35.1559999,33.2253572 34.694,31.4285715 C33.7825714,27.8872144 33.7448571,25.4700001 33.7448571,25.1659287 L33.7448571,22.0945001 L33.7448571,22.0945001 Z M125.714286,92.8571429 L6.28571429,92.8571429 L6.28571429,37.5714286 L29.7345714,37.5714286 C37.3277143,57.6032855 61.398857,67.2475716 62.5208573,67.6867859 L64.7177143,68.6297143 L67.3420001,67.7267144 C87.7925715,59.7317857 96.47,47.0314286 100.156571,37.5714286 L125.714286,37.5714286 L125.714286,92.8571429 L125.714286,92.8571429 Z" id="Imported-Layers-3-Copy" fill="#FFFFFF" sketch:type="MSShapeGroup"></path>
    </g>
</svg>